<?xml version="1.0" standalone="no"?>
<!DOCTYPE svg PUBLIC "-//W3C//DTD SVG 20010904//EN"
 "http://www.w3.org/TR/2001/REC-SVG-20010904/DTD/svg10.dtd">
<svg version="1.0" xmlns="http://www.w3.org/2000/svg"
 width="1280.000000pt" height="1040.000000pt" viewBox="0 0 1280.000000 1040.000000"
 preserveAspectRatio="xMidYMid meet">
<metadata>
Created by potrace 1.15, written by Peter Selinger 2001-2017
</metadata>
<g transform="translate(0.000000,1040.000000) scale(0.100000,-0.100000)"
fill="#000000" stroke="none">
<path d="M11339 8962 c-33 -23 -238 -122 -254 -122 -7 0 -23 -8 -36 -19 -34
-26 -1107 -541 -1129 -541 -10 0 -24 -7 -31 -16 -8 -9 -32 -25 -54 -34 -77
-33 -221 -102 -315 -150 -52 -26 -333 -163 -625 -303 -291 -140 -1392 -670
-2445 -1177 -1053 -507 -1931 -927 -1950 -932 -19 -6 -44 -18 -55 -28 -11 -9
-63 -37 -115 -60 -52 -24 -104 -49 -115 -57 -11 -7 -29 -13 -42 -13 -12 0 -25
-5 -28 -10 -4 -6 -61 -38 -128 -71 -67 -34 -140 -78 -162 -99 -24 -23 -54 -40
-76 -44 -19 -3 -58 -20 -85 -38 -27 -17 -137 -74 -244 -126 -107 -52 -215
-109 -240 -126 -57 -40 -190 -106 -212 -106 -9 0 -20 -5 -23 -10 -4 -6 -34
-24 -68 -42 -34 -17 -75 -41 -91 -55 -15 -13 -59 -38 -97 -55 -38 -17 -69 -35
-69 -40 0 -4 -11 -8 -24 -8 -14 0 -27 -4 -30 -9 -3 -5 -40 -25 -81 -44 -41
-20 -78 -43 -81 -52 -4 -9 -24 -25 -45 -35 -21 -11 -54 -31 -75 -45 -20 -14
-43 -25 -51 -25 -8 0 -38 -15 -66 -34 -29 -19 -78 -46 -111 -60 -55 -24 -58
-28 -53 -54 l6 -28 -119 -12 -118 -12 -618 -366 c-341 -201 -654 -386 -697
-411 -43 -25 -76 -47 -75 -49 2 -2 82 24 178 57 218 76 585 202 1019 352 l334
116 76 75 c59 58 81 74 97 70 12 -3 51 7 90 24 67 28 109 44 224 83 55 20 120
47 290 125 l95 44 5 -73 c7 -87 31 -135 147 -290 138 -185 162 -269 124 -429
-41 -172 -103 -282 -220 -391 -122 -112 -258 -188 -902 -500 -163 -79 -299
-149 -303 -156 -5 -7 3 -11 23 -11 16 0 98 -13 183 -29 389 -74 631 -101 963
-108 209 -4 305 -1 425 11 266 28 554 96 767 180 47 19 81 31 77 26 -5 -4
-166 -112 -359 -240 -192 -128 -354 -237 -360 -242 -15 -15 32 10 105 57 53
34 706 437 732 452 9 5 -21 -81 -137 -397 -125 -338 -123 -336 80 120 70 157
129 287 130 288 3 4 198 -148 387 -300 53 -43 99 -78 102 -78 3 0 -92 93 -211
207 l-215 208 33 6 c19 4 214 30 434 58 220 28 409 53 420 55 46 8 -50 5 -141
-4 -181 -18 -706 -61 -710 -58 -1 2 54 34 124 72 396 214 760 489 1052 792
223 232 404 462 641 816 76 114 151 219 166 234 18 18 23 29 15 32 -11 3 -138
-62 -472 -243 -172 -94 -437 -222 -548 -266 -305 -119 -480 -107 -737 49 -49
30 -121 73 -158 94 -37 22 -66 42 -63 45 2 2 51 -24 108 -60 155 -96 150 -94
142 -60 -3 15 -8 40 -11 54 -14 72 -92 105 -198 83 -54 -10 -63 -10 -86 7 -43
30 -91 89 -177 216 -95 140 -159 204 -243 242 l-59 27 67 31 c38 18 88 34 113
36 37 3 217 78 315 130 86 46 278 137 289 137 7 0 24 8 37 18 13 10 598 294
1299 632 701 337 1839 885 2528 1217 689 331 1258 603 1265 603 7 0 17 4 23 9
14 15 273 141 288 141 7 0 24 8 37 18 13 10 272 137 574 281 303 145 612 295
688 332 76 38 146 69 157 69 21 0 73 81 72 114 0 32 -146 298 -168 306 -50 18
-111 19 -135 2z"/>
</g>
</svg>
